<?xml version="1.0" encoding="UTF-8"?>
<!DOCTYPE svg PUBLIC "-//W3C//DTD SVG 1.1//EN" "http://www.w3.org/Graphics/SVG/1.1/DTD/svg11.dtd">
<svg xmlns="http://www.w3.org/2000/svg" version="1.1" width="237px" height="235px" style="shape-rendering:geometricPrecision; text-rendering:geometricPrecision; image-rendering:optimizeQuality; fill-rule:evenodd; clip-rule:evenodd" xmlns:xlink="http://www.w3.org/1999/xlink">
<g><path style="opacity:0.416" fill="#bfccda" d="M 119.5,3.5 C 119.167,3.5 118.833,3.5 118.5,3.5C 111.798,3.33569 105.131,3.66902 98.5,4.5C 102.203,2.94498 106.203,2.27831 110.5,2.5C 113.686,2.50199 116.686,2.83533 119.5,3.5 Z"/></g>
<g><path style="opacity:0.004" fill="#fefffe" d="M 31.5,4.5 C 32.8333,5.16667 32.8333,5.16667 31.5,4.5 Z"/></g>
<g><path style="opacity:1" fill="#114e8c" d="M 118.5,3.5 C 118.5,19.8333 118.5,36.1667 118.5,52.5C 115.287,52.19 112.287,52.5233 109.5,53.5C 102.796,53.7346 96.7957,55.7346 91.5,59.5C 86.6114,60.3479 82.6114,62.6812 79.5,66.5C 76.2157,68.117 73.5491,70.4503 71.5,73.5C 70.0937,73.9731 69.427,74.9731 69.5,76.5C 67.4131,77.5846 66.0798,79.2512 65.5,81.5C 65.6716,82.4916 65.3382,83.1583 64.5,83.5C 63.0937,83.9731 62.427,84.9731 62.5,86.5C 60.8958,87.287 60.2291,88.6203 60.5,90.5C 57.7957,95.4437 55.9623,100.777 55,106.5C 54.3333,113.5 54.3333,120.5 55,127.5C 55.2784,128.416 55.7784,129.082 56.5,129.5C 56.2503,134.412 57.5837,138.745 60.5,142.5C 61.1098,143.391 61.4431,144.391 61.5,145.5C 62.3833,148.704 64.0499,151.371 66.5,153.5C 67.604,155.389 68.9373,157.055 70.5,158.5C 70.8333,160.833 72.1667,162.167 74.5,162.5C 76.1935,165.19 78.5268,167.19 81.5,168.5C 82.4363,169.974 83.7697,170.974 85.5,171.5C 86.609,171.557 87.609,171.89 88.5,172.5C 92.6551,176.404 97.6551,178.404 103.5,178.5C 112.133,179.377 120.8,179.711 129.5,179.5C 135.93,179.442 141.597,177.442 146.5,173.5C 146.842,172.662 147.508,172.328 148.5,172.5C 154.053,171.226 158.387,168.226 161.5,163.5C 164.167,162.833 165.833,161.167 166.5,158.5C 168.063,157.055 169.396,155.389 170.5,153.5C 172.95,151.371 174.617,148.704 175.5,145.5C 175.5,145.167 175.5,144.833 175.5,144.5C 177.733,141.61 179.066,138.277 179.5,134.5C 181.074,131.093 182.074,127.427 182.5,123.5C 183.451,122.081 183.784,120.415 183.5,118.5C 199.5,118.5 215.5,118.5 231.5,118.5C 231.5,120.5 231.5,122.5 231.5,124.5C 230.504,132.49 229.504,140.49 228.5,148.5C 226.72,149.99 226.054,151.99 226.5,154.5C 225.976,156.306 225.309,157.972 224.5,159.5C 222.127,163.598 220.127,167.932 218.5,172.5C 217.974,174.23 216.974,175.564 215.5,176.5C 212.449,180.223 209.782,184.223 207.5,188.5C 204.757,190.239 202.757,192.573 201.5,195.5C 200.5,195.833 199.833,196.5 199.5,197.5C 198.5,197.833 197.833,198.5 197.5,199.5C 194.553,200.781 192.219,202.781 190.5,205.5C 190.5,206.167 190.167,206.5 189.5,206.5C 186.63,207.433 184.296,209.1 182.5,211.5C 180.326,211.75 178.659,212.75 177.5,214.5C 177.5,215.167 177.167,215.5 176.5,215.5C 174.326,215.75 172.659,216.75 171.5,218.5C 169.302,218.12 167.635,218.787 166.5,220.5C 163.686,222.07 160.686,223.403 157.5,224.5C 155.102,224.259 153.102,224.926 151.5,226.5C 139.965,228.82 128.298,230.154 116.5,230.5C 109.116,230.302 101.783,229.635 94.5,228.5C 88.9954,226.599 83.3287,224.932 77.5,223.5C 76.4863,222.326 75.153,221.66 73.5,221.5C 73.1667,221.5 72.8333,221.5 72.5,221.5C 70.8148,219.182 68.4815,218.182 65.5,218.5C 63.8525,216.674 61.8525,215.34 59.5,214.5C 58.5084,214.672 57.8417,214.338 57.5,213.5C 57.0269,212.094 56.0269,211.427 54.5,211.5C 52.4504,209.453 50.117,207.786 47.5,206.5C 46.4154,204.413 44.7488,203.08 42.5,202.5C 41.8333,201.167 40.8333,200.167 39.5,199.5C 39.1667,198.5 38.5,197.833 37.5,197.5C 37.1667,196.5 36.5,195.833 35.5,195.5C 35.1436,193.81 34.1436,192.81 32.5,192.5C 30.8892,188.949 28.5558,185.949 25.5,183.5C 24.5514,181.223 23.2181,179.223 21.5,177.5C 20.3263,176.486 19.6596,175.153 19.5,173.5C 16.8107,167.726 14.1441,162.059 11.5,156.5C 10.0582,155.18 9.39151,153.514 9.5,151.5C 9.00745,149.194 8.67412,146.861 8.5,144.5C 9.00608,139.843 8.17275,135.51 6,131.5C 5.50025,122.84 5.33358,114.173 5.5,105.5C 5.5,102.833 5.5,100.167 5.5,97.5C 7.59104,92.8094 8.92438,87.8094 9.5,82.5C 10.7384,80.7857 11.405,78.7857 11.5,76.5C 11.5,76.1667 11.5,75.8333 11.5,75.5C 13.7333,72.1514 15.4,68.4847 16.5,64.5C 18.2503,63.3406 19.2503,61.674 19.5,59.5C 19.6596,57.847 20.3263,56.5137 21.5,55.5C 23.9748,53.2297 25.9748,50.563 27.5,47.5C 29.2624,46.7377 30.2624,45.4044 30.5,43.5C 36.1929,38.1388 41.8596,32.8054 47.5,27.5C 52.4503,24.5475 57.117,21.2141 61.5,17.5C 63.153,17.3404 64.4863,16.6737 65.5,15.5C 67.3797,15.7709 68.713,15.1042 69.5,13.5C 73.6926,12.2159 77.6926,10.5493 81.5,8.5C 85.5704,8.56823 89.237,7.56823 92.5,5.5C 94.2646,4.53862 96.2646,4.20528 98.5,4.5C 105.131,3.66902 111.798,3.33569 118.5,3.5 Z"/></g>
<g><path style="opacity:0.753" fill="#9bb1cb" d="M 92.5,5.5 C 89.237,7.56823 85.5704,8.56823 81.5,8.5C 84.9365,7.05516 88.6032,6.05516 92.5,5.5 Z"/></g>
<g><path style="opacity:0.027" fill="#e1e7ee" d="M 81.5,8.5 C 77.6926,10.5493 73.6926,12.2159 69.5,13.5C 72.9312,10.6834 76.9312,9.01671 81.5,8.5 Z"/></g>
<g><path style="opacity:0.322" fill="#cdd9e4" d="M 69.5,13.5 C 68.713,15.1042 67.3797,15.7709 65.5,15.5C 66.5137,14.3263 67.847,13.6596 69.5,13.5 Z"/></g>
<g><path style="opacity:0.384" fill="#d0dae4" d="M 65.5,15.5 C 64.4863,16.6737 63.153,17.3404 61.5,17.5C 62.287,15.8958 63.6203,15.2291 65.5,15.5 Z"/></g>
<g><path style="opacity:0.075" fill="#c8d4e0" d="M 61.5,17.5 C 57.117,21.2141 52.4503,24.5475 47.5,27.5C 51.3261,23.0099 55.9927,19.6766 61.5,17.5 Z"/></g>
<g><path style="opacity:0.431" fill="#cfd9e3" d="M 47.5,27.5 C 41.8596,32.8054 36.1929,38.1388 30.5,43.5C 34.233,38.2595 38.5663,33.4262 43.5,29C 44.745,28.2086 46.0783,27.7086 47.5,27.5 Z"/></g>
<g><path style="opacity:0.69" fill="#8ea7c2" d="M 118.5,3.5 C 118.833,3.5 119.167,3.5 119.5,3.5C 120.264,19.9726 120.264,36.6393 119.5,53.5C 116.167,53.5 112.833,53.5 109.5,53.5C 112.287,52.5233 115.287,52.19 118.5,52.5C 118.5,36.1667 118.5,19.8333 118.5,3.5 Z"/></g>
<g><path style="opacity:0.506" fill="#c8d4df" d="M 30.5,43.5 C 30.2624,45.4044 29.2624,46.7377 27.5,47.5C 27.7376,45.5956 28.7376,44.2623 30.5,43.5 Z"/></g>
<g><path style="opacity:0.282" fill="#dce3eb" d="M 27.5,47.5 C 25.9748,50.563 23.9748,53.2297 21.5,55.5C 22.5512,52.0393 24.5512,49.3727 27.5,47.5 Z"/></g>
<g><path style="opacity:0.004" fill="#fefffe" d="M 4.5,51.5 C 5.83333,52.1667 5.83333,52.1667 4.5,51.5 Z"/></g>
<g><path style="opacity:0.137" fill="#dbe3ea" d="M 109.5,53.5 C 112.833,53.5 116.167,53.5 119.5,53.5C 109.99,54.0704 100.657,56.0704 91.5,59.5C 96.7957,55.7346 102.796,53.7346 109.5,53.5 Z"/></g>
<g><path style="opacity:0.224" fill="#d9e1e9" d="M 19.5,59.5 C 19.2503,61.674 18.2503,63.3406 16.5,64.5C 16.7497,62.326 17.7497,60.6594 19.5,59.5 Z"/></g>
<g><path style="opacity:0.098" fill="#e1e8ee" d="M 91.5,59.5 C 87.8362,62.3346 83.8362,64.668 79.5,66.5C 82.6114,62.6812 86.6114,60.3479 91.5,59.5 Z"/></g>
<g><path style="opacity:1" fill="#fe9a0d" d="M 132.5,66.5 C 149.167,66.5 165.833,66.5 182.5,66.5C 182.5,83.5 182.5,100.5 182.5,117.5C 165.833,117.5 149.167,117.5 132.5,117.5C 132.5,100.5 132.5,83.5 132.5,66.5 Z"/></g>
<g><path style="opacity:0.098" fill="#dce3eb" d="M 79.5,66.5 C 77.4768,69.5203 74.8102,71.8536 71.5,73.5C 73.5491,70.4503 76.2157,68.117 79.5,66.5 Z"/></g>
<g><path style="opacity:0.196" fill="#e1e7ed" d="M 16.5,64.5 C 15.4,68.4847 13.7333,72.1514 11.5,75.5C 12.2085,71.3648 13.8752,67.6981 16.5,64.5 Z"/></g>
<g><path style="opacity:0.027" fill="#d4dee6" d="M 71.5,73.5 C 71.573,75.0269 70.9063,76.0269 69.5,76.5C 69.427,74.9731 70.0937,73.9731 71.5,73.5 Z"/></g>
<g><path style="opacity:0.004" fill="#fefffe" d="M 7.5,76.5 C 8.83333,77.1667 8.83333,77.1667 7.5,76.5 Z"/></g>
<g><path style="opacity:0.02" fill="#e5ebf0" d="M 69.5,76.5 C 68.8645,78.7946 67.5311,80.4613 65.5,81.5C 66.0798,79.2512 67.4131,77.5846 69.5,76.5 Z"/></g>
<g><path style="opacity:0.11" fill="#dce3ea" d="M 11.5,76.5 C 11.405,78.7857 10.7384,80.7857 9.5,82.5C 9.25939,80.1016 9.92606,78.1016 11.5,76.5 Z"/></g>
<g><path style="opacity:0.427" fill="#f6dbb7" d="M 132.5,66.5 C 132.5,83.5 132.5,100.5 132.5,117.5C 132.167,117.5 131.833,117.5 131.5,117.5C 130.593,101.218 130.26,85.0511 130.5,69C 131.066,68.0053 131.733,67.172 132.5,66.5 Z"/></g>
<g><path style="opacity:0.094" fill="#e7ecf2" d="M 64.5,83.5 C 64.573,85.0269 63.9063,86.0269 62.5,86.5C 62.427,84.9731 63.0937,83.9731 64.5,83.5 Z"/></g>
<g><path style="opacity:0.29" fill="#cdd5de" d="M 62.5,86.5 C 62.3404,88.153 61.6737,89.4863 60.5,90.5C 60.2291,88.6203 60.8958,87.287 62.5,86.5 Z"/></g>
<g><path style="opacity:0.592" fill="#b8c6d6" d="M 9.5,82.5 C 8.92438,87.8094 7.59104,92.8094 5.5,97.5C 5.64682,92.0783 6.98016,87.0783 9.5,82.5 Z"/></g>
<g><path style="opacity:0.114" fill="#e6ebf1" d="M 5.5,97.5 C 5.5,100.167 5.5,102.833 5.5,105.5C 4.50698,113.984 4.17364,122.651 4.5,131.5C 3.34174,121.675 3.17508,111.675 4,101.5C 4.21003,99.9419 4.71003,98.6085 5.5,97.5 Z"/></g>
<g><path style="opacity:0.004" fill="#fefffe" d="M 85.5,110.5 C 86.8333,111.167 86.8333,111.167 85.5,110.5 Z"/></g>
<g><path style="opacity:0.004" fill="#fefffe" d="M 112.5,114.5 C 113.833,115.167 113.833,115.167 112.5,114.5 Z"/></g>
<g><path style="opacity:0.18" fill="#d6dfe8" d="M 60.5,90.5 C 59.0173,96.144 57.5173,101.811 56,107.5C 55.3167,114.861 55.4833,122.195 56.5,129.5C 55.7784,129.082 55.2784,128.416 55,127.5C 54.3333,120.5 54.3333,113.5 55,106.5C 55.9623,100.777 57.7957,95.4437 60.5,90.5 Z"/></g>
<g><path style="opacity:0.176" fill="#dededc" d="M 182.5,66.5 C 183.18,82.7056 183.847,99.0389 184.5,115.5C 200.82,116.499 217.153,116.833 233.5,116.5C 234.038,127.637 232.371,138.304 228.5,148.5C 229.504,140.49 230.504,132.49 231.5,124.5C 232.468,122.393 232.802,120.059 232.5,117.5C 215.833,117.5 199.167,117.5 182.5,117.5C 182.5,100.5 182.5,83.5 182.5,66.5 Z"/></g>
<g><path style="opacity:0.176" fill="#fbf1e1" d="M 131.5,117.5 C 131.833,117.5 132.167,117.5 132.5,117.5C 149.167,117.5 165.833,117.5 182.5,117.5C 182.5,117.833 182.5,118.167 182.5,118.5C 181.833,118.5 181.5,118.833 181.5,119.5C 164.705,118.861 148.039,118.194 131.5,117.5 Z"/></g>
<g><path style="opacity:0.824" fill="#406c99" d="M 182.5,117.5 C 199.167,117.5 215.833,117.5 232.5,117.5C 232.802,120.059 232.468,122.393 231.5,124.5C 231.5,122.5 231.5,120.5 231.5,118.5C 215.5,118.5 199.5,118.5 183.5,118.5C 183.784,120.415 183.451,122.081 182.5,123.5C 182.5,121.833 182.5,120.167 182.5,118.5C 182.5,118.167 182.5,117.833 182.5,117.5 Z"/></g>
<g><path style="opacity:0.286" fill="#c0ccd7" d="M 182.5,118.5 C 182.5,120.167 182.5,121.833 182.5,123.5C 182.074,127.427 181.074,131.093 179.5,134.5C 180.327,129.523 180.994,124.523 181.5,119.5C 181.5,118.833 181.833,118.5 182.5,118.5 Z"/></g>
<g><path style="opacity:0.004" fill="#fefffe" d="M 172.5,122.5 C 173.833,123.167 173.833,123.167 172.5,122.5 Z"/></g>
<g><path style="opacity:0.18" fill="#d9e0e9" d="M 56.5,129.5 C 58.0568,133.653 59.3902,137.986 60.5,142.5C 57.5837,138.745 56.2503,134.412 56.5,129.5 Z"/></g>
<g><path style="opacity:1" fill="#3f6796" d="M 5.5,105.5 C 5.33358,114.173 5.50025,122.84 6,131.5C 8.17275,135.51 9.00608,139.843 8.5,144.5C 8.16667,144.5 7.83333,144.5 7.5,144.5C 6.9196,140.858 6.4196,137.191 6,133.5C 5.61742,132.944 5.11742,132.611 4.5,132.5C 4.5,132.167 4.5,131.833 4.5,131.5C 4.17364,122.651 4.50698,113.984 5.5,105.5 Z"/></g>
<g><path style="opacity:0.024" fill="#dde5ed" d="M 4.5,132.5 C 5.11742,132.611 5.61742,132.944 6,133.5C 6.4196,137.191 6.9196,140.858 7.5,144.5C 5.65778,140.841 4.65778,136.841 4.5,132.5 Z"/></g>
<g><path style="opacity:0.137" fill="#e4e9ef" d="M 179.5,134.5 C 179.066,138.277 177.733,141.61 175.5,144.5C 176.317,141.521 177.151,138.521 178,135.5C 178.383,134.944 178.883,134.611 179.5,134.5 Z"/></g>
<g><path style="opacity:0.004" fill="#fefffe" d="M 127.5,141.5 C 128.833,142.167 128.833,142.167 127.5,141.5 Z"/></g>
<g><path style="opacity:0.067" fill="#e3eaf0" d="M 7.5,144.5 C 7.83333,144.5 8.16667,144.5 8.5,144.5C 8.67412,146.861 9.00745,149.194 9.5,151.5C 7.83724,149.562 7.17057,147.228 7.5,144.5 Z"/></g>
<g><path style="opacity:0.259" fill="#c9d4df" d="M 175.5,145.5 C 174.617,148.704 172.95,151.371 170.5,153.5C 171.383,150.296 173.05,147.629 175.5,145.5 Z"/></g>
<g><path style="opacity:0.145" fill="#d9e1e9" d="M 61.5,145.5 C 63.9501,147.629 65.6167,150.296 66.5,153.5C 64.0499,151.371 62.3833,148.704 61.5,145.5 Z"/></g>
<g><path style="opacity:0.576" fill="#abbccd" d="M 228.5,148.5 C 228.405,150.786 227.738,152.786 226.5,154.5C 226.054,151.99 226.72,149.99 228.5,148.5 Z"/></g>
<g><path style="opacity:0.071" fill="#e8ecf0" d="M 66.5,153.5 C 68.9971,154.129 70.3304,155.796 70.5,158.5C 68.9373,157.055 67.604,155.389 66.5,153.5 Z"/></g>
<g><path style="opacity:0.102" fill="#e4e9ef" d="M 170.5,153.5 C 169.396,155.389 168.063,157.055 166.5,158.5C 166.67,155.796 168.003,154.129 170.5,153.5 Z"/></g>
<g><path style="opacity:0.561" fill="#becbd8" d="M 70.5,158.5 C 72.1667,159.5 73.5,160.833 74.5,162.5C 72.1667,162.167 70.8333,160.833 70.5,158.5 Z"/></g>
<g><path style="opacity:0.557" fill="#a5bace" d="M 166.5,158.5 C 165.833,161.167 164.167,162.833 161.5,163.5C 162.833,161.5 164.5,159.833 166.5,158.5 Z"/></g>
<g><path style="opacity:0.016" fill="#cfd9e3" d="M 74.5,162.5 C 77.4474,163.781 79.7807,165.781 81.5,168.5C 78.5268,167.19 76.1935,165.19 74.5,162.5 Z"/></g>
<g><path style="opacity:0.349" fill="#cbd6e0" d="M 161.5,163.5 C 158.387,168.226 154.053,171.226 148.5,172.5C 153.037,169.737 157.37,166.737 161.5,163.5 Z"/></g>
<g><path style="opacity:0.184" fill="#dfe6ed" d="M 11.5,156.5 C 14.1441,162.059 16.8107,167.726 19.5,173.5C 16.2995,170.134 13.7995,166.134 12,161.5C 11.5065,159.866 11.3398,158.199 11.5,156.5 Z"/></g>
<g><path style="opacity:0.145" fill="#e0e6ee" d="M 224.5,159.5 C 223.829,164.506 221.829,168.839 218.5,172.5C 220.127,167.932 222.127,163.598 224.5,159.5 Z"/></g>
<g><path style="opacity:0.11" fill="#e3e9f0" d="M 81.5,168.5 C 83.632,168.554 84.9653,169.554 85.5,171.5C 83.7697,170.974 82.4363,169.974 81.5,168.5 Z"/></g>
<g><path style="opacity:0.106" fill="#d6dfe7" d="M 88.5,172.5 C 93.7804,174.141 98.7804,176.141 103.5,178.5C 97.6551,178.404 92.6551,176.404 88.5,172.5 Z"/></g>
<g><path style="opacity:0.102" fill="#d1dae3" d="M 146.5,173.5 C 141.597,177.442 135.93,179.442 129.5,179.5C 134.994,177.265 140.66,175.265 146.5,173.5 Z"/></g>
<g><path style="opacity:0.055" fill="#dbe2ea" d="M 21.5,177.5 C 23.2181,179.223 24.5514,181.223 25.5,183.5C 22.9558,182.292 21.6225,180.292 21.5,177.5 Z"/></g>
<g><path style="opacity:0.031" fill="#d8e0e9" d="M 215.5,176.5 C 214.044,181.293 211.377,185.293 207.5,188.5C 209.782,184.223 212.449,180.223 215.5,176.5 Z"/></g>
<g><path style="opacity:0.259" fill="#d3dce4" d="M 25.5,183.5 C 28.5558,185.949 30.8892,188.949 32.5,192.5C 29.4442,190.051 27.1108,187.051 25.5,183.5 Z"/></g>
<g><path style="opacity:0.035" fill="#dde4ea" d="M 207.5,188.5 C 206.19,191.473 204.19,193.807 201.5,195.5C 202.757,192.573 204.757,190.239 207.5,188.5 Z"/></g>
<g><path style="opacity:0.004" fill="#fefffe" d="M 16.5,194.5 C 17.8333,195.167 17.8333,195.167 16.5,194.5 Z"/></g>
<g><path style="opacity:0.012" fill="#d4dde4" d="M 32.5,192.5 C 34.1436,192.81 35.1436,193.81 35.5,195.5C 33.8564,195.19 32.8564,194.19 32.5,192.5 Z"/></g>
<g><path style="opacity:0.024" fill="#e9edf3" d="M 35.5,195.5 C 36.5,195.833 37.1667,196.5 37.5,197.5C 36.1667,197.5 35.5,196.833 35.5,195.5 Z"/></g>
<g><path style="opacity:0.016" fill="#edf1f5" d="M 201.5,195.5 C 201.5,196.833 200.833,197.5 199.5,197.5C 199.833,196.5 200.5,195.833 201.5,195.5 Z"/></g>
<g><path style="opacity:0.02" fill="#eaeef3" d="M 37.5,197.5 C 38.5,197.833 39.1667,198.5 39.5,199.5C 38.1667,199.5 37.5,198.833 37.5,197.5 Z"/></g>
<g><path style="opacity:0.016" fill="#edf2f5" d="M 199.5,197.5 C 199.5,198.833 198.833,199.5 197.5,199.5C 197.833,198.5 198.5,197.833 199.5,197.5 Z"/></g>
<g><path style="opacity:0.008" fill="#edf0f4" d="M 39.5,199.5 C 40.8333,200.167 41.8333,201.167 42.5,202.5C 40.5,202.5 39.5,201.5 39.5,199.5 Z"/></g>
<g><path style="opacity:0.49" fill="#ced8e1" d="M 42.5,202.5 C 44.7488,203.08 46.4154,204.413 47.5,206.5C 45.2512,205.92 43.5846,204.587 42.5,202.5 Z"/></g>
<g><path style="opacity:0.047" fill="#e2e9ef" d="M 197.5,199.5 C 195.807,202.19 193.473,204.19 190.5,205.5C 192.219,202.781 194.553,200.781 197.5,199.5 Z"/></g>
<g><path style="opacity:0.118" fill="#d8e0e8" d="M 47.5,206.5 C 50.117,207.786 52.4504,209.453 54.5,211.5C 51.3257,210.99 48.9923,209.323 47.5,206.5 Z"/></g>
<g><path style="opacity:0.098" fill="#dde5ed" d="M 189.5,206.5 C 188.008,209.323 185.674,210.99 182.5,211.5C 184.296,209.1 186.63,207.433 189.5,206.5 Z"/></g>
<g><path style="opacity:0.267" fill="#d1dae3" d="M 54.5,211.5 C 56.0269,211.427 57.0269,212.094 57.5,213.5C 55.9731,213.573 54.9731,212.906 54.5,211.5 Z"/></g>
<g><path style="opacity:0.027" fill="#dbe3ea" d="M 182.5,211.5 C 181.341,213.25 179.674,214.25 177.5,214.5C 178.659,212.75 180.326,211.75 182.5,211.5 Z"/></g>
<g><path style="opacity:0.18" fill="#d1dce6" d="M 59.5,214.5 C 61.8525,215.34 63.8525,216.674 65.5,218.5C 62.8021,218.155 60.8021,216.822 59.5,214.5 Z"/></g>
<g><path style="opacity:0.165" fill="#e5ecf3" d="M 176.5,215.5 C 175.341,217.25 173.674,218.25 171.5,218.5C 172.659,216.75 174.326,215.75 176.5,215.5 Z"/></g>
<g><path style="opacity:0.004" fill="#fefffe" d="M 22.5,218.5 C 23.8333,219.167 23.8333,219.167 22.5,218.5 Z"/></g>
<g><path style="opacity:0.051" fill="#e0e7ee" d="M 171.5,218.5 C 170.22,219.931 168.553,220.598 166.5,220.5C 167.635,218.787 169.302,218.12 171.5,218.5 Z"/></g>
<g><path style="opacity:0.049" fill="#d7e0e7" d="M 65.5,218.5 C 68.4815,218.182 70.8148,219.182 72.5,221.5C 69.7594,221.293 67.4261,220.293 65.5,218.5 Z"/></g>
<g><path style="opacity:0.141" fill="#d1d9e2" d="M 73.5,221.5 C 75.153,221.66 76.4863,222.326 77.5,223.5C 75.6203,223.771 74.287,223.104 73.5,221.5 Z"/></g>
<g><path style="opacity:0.796" fill="#a9bacf" d="M 77.5,223.5 C 83.3287,224.932 88.9954,226.599 94.5,228.5C 88.2463,228.458 82.5796,226.792 77.5,223.5 Z"/></g>
<g><path style="opacity:0.098" fill="#e2e9f0" d="M 157.5,224.5 C 155.786,225.738 153.786,226.405 151.5,226.5C 153.102,224.926 155.102,224.259 157.5,224.5 Z"/></g>
<g><path style="opacity:0.059" fill="#e6ebf1" d="M 151.5,226.5 C 140.943,230.198 129.943,231.865 118.5,231.5C 114.167,231.333 109.833,231.167 105.5,231C 101.535,230.892 97.8683,230.059 94.5,228.5C 101.783,229.635 109.116,230.302 116.5,230.5C 128.298,230.154 139.965,228.82 151.5,226.5 Z"/></g>
</svg>
